# xmcd
#
# Track frame offsets:
#	150
#	15924
#	34865
#	51658
#	73097
#	89952
#	105899
#	133234
#	149154
#	166462
#	186334
#	200475
#	217349
#	237398
#	256030
#	275633
#	295834
#
# Disc length: 4198 seconds
#
# Revision: 0
# Processed by: cddbd v1.5.2PL0 Copyright (c) Steve Scherf et al.
# Submitted via: dBpowerAMP V4.0
#
DISCID=19106411
DTITLE=Steve e. Smith - Live in Montana
DYEAR=1900
DGENRE=Country
TTITLE0=I'm From The Country
TTITLE1=Black Coffee
TTITLE2=Where I'm Gonna Live
TTITLE3=Copperhead Road
TTITLE4=Trail Of Tears
TTITLE5=Gonna Get A Life
TTITLE6=On A Good Night - We'll Burn That Bridge
TTITLE7=Lovin' All Night
TTITLE8=(That Girl's Been) Spyin' On Me
TTITLE9=Two Pina Coladas
TTITLE10=Watermelon Crawl
TTITLE11=Elvira
TTITLE12=(I'm A) Man Of Constant Sorrow
TTITLE13=Fishin' In The Dark
TTITLE14=Red Hot Salsa
TTITLE15=Dance The Night Away
TTITLE16=Pizzirico
EXTD=Aufgenommen live im Montana, Volkmarsen
EXTT0=
EXTT1=
EXTT2=
EXTT3=
EXTT4=
EXTT5=
EXTT6=
EXTT7=
EXTT8=
EXTT9=
EXTT10=
EXTT11=
EXTT12=
EXTT13=
EXTT14=
EXTT15=
EXTT16=
PLAYORDER=
